<mxfile host="Electron" agent="Mozilla/5.0 (Windows NT 10.0; Win64; x64) AppleWebKit/537.36 (KHTML, like Gecko) draw.io/28.1.2 Chrome/138.0.7204.243 Electron/37.4.0 Safari/537.36" version="28.1.2">
  <diagram name="Page-1" id="gIAmI8im8MEPEqeqW_f9">
    <mxGraphModel dx="3531" dy="1453" grid="1" gridSize="10" guides="1" tooltips="1" connect="1" arrows="1" fold="1" page="1" pageScale="1" pageWidth="1100" pageHeight="850" math="0" shadow="0">
      <root>
        <mxCell id="0" />
        <mxCell id="1" parent="0" />
        <mxCell id="2I75z5MOBhP54EQgu0it-1" style="edgeStyle=orthogonalEdgeStyle;rounded=0;orthogonalLoop=1;jettySize=auto;html=1;endArrow=diamondThin;endFill=0;jumpSize=6;endSize=14;" edge="1" parent="1" source="aCgWnRSETQbmPh6hFBE5-1" target="toVHhSwL18jw2-ZxBe2X-17">
          <mxGeometry relative="1" as="geometry" />
        </mxCell>
        <mxCell id="2I75z5MOBhP54EQgu0it-2" value="0..*" style="edgeLabel;html=1;align=center;verticalAlign=middle;resizable=0;points=[];" vertex="1" connectable="0" parent="2I75z5MOBhP54EQgu0it-1">
          <mxGeometry x="-0.7054" relative="1" as="geometry">
            <mxPoint as="offset" />
          </mxGeometry>
        </mxCell>
        <mxCell id="2I75z5MOBhP54EQgu0it-3" value="1" style="edgeLabel;html=1;align=center;verticalAlign=middle;resizable=0;points=[];" vertex="1" connectable="0" parent="2I75z5MOBhP54EQgu0it-1">
          <mxGeometry x="0.6093" y="1" relative="1" as="geometry">
            <mxPoint as="offset" />
          </mxGeometry>
        </mxCell>
        <mxCell id="aCgWnRSETQbmPh6hFBE5-1" value="Order" style="swimlane;fontStyle=1;align=center;verticalAlign=top;childLayout=stackLayout;horizontal=1;startSize=26;horizontalStack=0;resizeParent=1;resizeParentMax=0;resizeLast=0;collapsible=1;marginBottom=0;whiteSpace=wrap;html=1;" parent="1" vertex="1">
          <mxGeometry x="90" y="380" width="170" height="124" as="geometry" />
        </mxCell>
        <mxCell id="aCgWnRSETQbmPh6hFBE5-2" value="- order_id: int&lt;div&gt;- order_time: datetime&lt;/div&gt;&lt;div&gt;- status: OrderStatus&lt;/div&gt;" style="text;strokeColor=none;fillColor=none;align=left;verticalAlign=top;spacingLeft=4;spacingRight=4;overflow=hidden;rotatable=0;points=[[0,0.5],[1,0.5]];portConstraint=eastwest;whiteSpace=wrap;html=1;" parent="aCgWnRSETQbmPh6hFBE5-1" vertex="1">
          <mxGeometry y="26" width="170" height="64" as="geometry" />
        </mxCell>
        <mxCell id="aCgWnRSETQbmPh6hFBE5-3" value="" style="line;strokeWidth=1;fillColor=none;align=left;verticalAlign=middle;spacingTop=-1;spacingLeft=3;spacingRight=3;rotatable=0;labelPosition=right;points=[];portConstraint=eastwest;strokeColor=inherit;" parent="aCgWnRSETQbmPh6hFBE5-1" vertex="1">
          <mxGeometry y="90" width="170" height="8" as="geometry" />
        </mxCell>
        <mxCell id="aCgWnRSETQbmPh6hFBE5-4" value="+ process()" style="text;strokeColor=none;fillColor=none;align=left;verticalAlign=top;spacingLeft=4;spacingRight=4;overflow=hidden;rotatable=0;points=[[0,0.5],[1,0.5]];portConstraint=eastwest;whiteSpace=wrap;html=1;" parent="aCgWnRSETQbmPh6hFBE5-1" vertex="1">
          <mxGeometry y="98" width="170" height="26" as="geometry" />
        </mxCell>
        <mxCell id="aCgWnRSETQbmPh6hFBE5-5" value="Item" style="swimlane;fontStyle=1;align=center;verticalAlign=top;childLayout=stackLayout;horizontal=1;startSize=26;horizontalStack=0;resizeParent=1;resizeParentMax=0;resizeLast=0;collapsible=1;marginBottom=0;whiteSpace=wrap;html=1;" parent="1" vertex="1">
          <mxGeometry x="-410" y="790" width="210" height="130" as="geometry" />
        </mxCell>
        <mxCell id="aCgWnRSETQbmPh6hFBE5-6" value="- item_id : int&lt;div&gt;- name : str&lt;/div&gt;&lt;div&gt;- weight : float&lt;/div&gt;&lt;div&gt;- category : str&lt;/div&gt;&lt;div&gt;- volume : float&lt;/div&gt;&lt;div&gt;- stackable : bool&amp;nbsp;&lt;/div&gt;" style="text;strokeColor=none;fillColor=none;align=left;verticalAlign=top;spacingLeft=4;spacingRight=4;overflow=hidden;rotatable=0;points=[[0,0.5],[1,0.5]];portConstraint=eastwest;whiteSpace=wrap;html=1;" parent="aCgWnRSETQbmPh6hFBE5-5" vertex="1">
          <mxGeometry y="26" width="210" height="104" as="geometry" />
        </mxCell>
        <mxCell id="aCgWnRSETQbmPh6hFBE5-13" value="RefillOrder" style="swimlane;fontStyle=1;align=center;verticalAlign=top;childLayout=stackLayout;horizontal=1;startSize=26;horizontalStack=0;resizeParent=1;resizeParentMax=0;resizeLast=0;collapsible=1;marginBottom=0;whiteSpace=wrap;html=1;" parent="1" vertex="1">
          <mxGeometry x="250" y="610" width="160" height="104" as="geometry" />
        </mxCell>
        <mxCell id="aCgWnRSETQbmPh6hFBE5-14" value="- item_id: int&lt;div&gt;- qty_requested: int&lt;/div&gt;" style="text;strokeColor=none;fillColor=none;align=left;verticalAlign=top;spacingLeft=4;spacingRight=4;overflow=hidden;rotatable=0;points=[[0,0.5],[1,0.5]];portConstraint=eastwest;whiteSpace=wrap;html=1;" parent="aCgWnRSETQbmPh6hFBE5-13" vertex="1">
          <mxGeometry y="26" width="160" height="44" as="geometry" />
        </mxCell>
        <mxCell id="aCgWnRSETQbmPh6hFBE5-15" value="" style="line;strokeWidth=1;fillColor=none;align=left;verticalAlign=middle;spacingTop=-1;spacingLeft=3;spacingRight=3;rotatable=0;labelPosition=right;points=[];portConstraint=eastwest;strokeColor=inherit;" parent="aCgWnRSETQbmPh6hFBE5-13" vertex="1">
          <mxGeometry y="70" width="160" height="8" as="geometry" />
        </mxCell>
        <mxCell id="aCgWnRSETQbmPh6hFBE5-16" value="+ method(type): type" style="text;strokeColor=none;fillColor=none;align=left;verticalAlign=top;spacingLeft=4;spacingRight=4;overflow=hidden;rotatable=0;points=[[0,0.5],[1,0.5]];portConstraint=eastwest;whiteSpace=wrap;html=1;" parent="aCgWnRSETQbmPh6hFBE5-13" vertex="1">
          <mxGeometry y="78" width="160" height="26" as="geometry" />
        </mxCell>
        <mxCell id="aCgWnRSETQbmPh6hFBE5-17" value="OpmOrder" style="swimlane;fontStyle=1;align=center;verticalAlign=top;childLayout=stackLayout;horizontal=1;startSize=26;horizontalStack=0;resizeParent=1;resizeParentMax=0;resizeLast=0;collapsible=1;marginBottom=0;whiteSpace=wrap;html=1;" parent="1" vertex="1">
          <mxGeometry x="-70" y="610" width="180" height="114" as="geometry" />
        </mxCell>
        <mxCell id="aCgWnRSETQbmPh6hFBE5-18" value="- requested_items: Dict[int,int]" style="text;strokeColor=none;fillColor=none;align=left;verticalAlign=top;spacingLeft=4;spacingRight=4;overflow=hidden;rotatable=0;points=[[0,0.5],[1,0.5]];portConstraint=eastwest;whiteSpace=wrap;html=1;" parent="aCgWnRSETQbmPh6hFBE5-17" vertex="1">
          <mxGeometry y="26" width="180" height="54" as="geometry" />
        </mxCell>
        <mxCell id="aCgWnRSETQbmPh6hFBE5-19" value="" style="line;strokeWidth=1;fillColor=none;align=left;verticalAlign=middle;spacingTop=-1;spacingLeft=3;spacingRight=3;rotatable=0;labelPosition=right;points=[];portConstraint=eastwest;strokeColor=inherit;" parent="aCgWnRSETQbmPh6hFBE5-17" vertex="1">
          <mxGeometry y="80" width="180" height="8" as="geometry" />
        </mxCell>
        <mxCell id="aCgWnRSETQbmPh6hFBE5-20" value="+ method(type): type" style="text;strokeColor=none;fillColor=none;align=left;verticalAlign=top;spacingLeft=4;spacingRight=4;overflow=hidden;rotatable=0;points=[[0,0.5],[1,0.5]];portConstraint=eastwest;whiteSpace=wrap;html=1;" parent="aCgWnRSETQbmPh6hFBE5-17" vertex="1">
          <mxGeometry y="88" width="180" height="26" as="geometry" />
        </mxCell>
        <mxCell id="toVHhSwL18jw2-ZxBe2X-2" value="Catalogue" style="swimlane;fontStyle=1;align=center;verticalAlign=top;childLayout=stackLayout;horizontal=1;startSize=26;horizontalStack=0;resizeParent=1;resizeParentMax=0;resizeLast=0;collapsible=1;marginBottom=0;whiteSpace=wrap;html=1;" parent="1" vertex="1">
          <mxGeometry x="-840" y="770" width="230" height="150" as="geometry" />
        </mxCell>
        <mxCell id="toVHhSwL18jw2-ZxBe2X-3" value="- items : Dict[int,item]" style="text;strokeColor=none;fillColor=none;align=left;verticalAlign=top;spacingLeft=4;spacingRight=4;overflow=hidden;rotatable=0;points=[[0,0.5],[1,0.5]];portConstraint=eastwest;whiteSpace=wrap;html=1;" parent="toVHhSwL18jw2-ZxBe2X-2" vertex="1">
          <mxGeometry y="26" width="230" height="26" as="geometry" />
        </mxCell>
        <mxCell id="toVHhSwL18jw2-ZxBe2X-4" value="" style="line;strokeWidth=1;fillColor=none;align=left;verticalAlign=middle;spacingTop=-1;spacingLeft=3;spacingRight=3;rotatable=0;labelPosition=right;points=[];portConstraint=eastwest;strokeColor=inherit;" parent="toVHhSwL18jw2-ZxBe2X-2" vertex="1">
          <mxGeometry y="52" width="230" height="8" as="geometry" />
        </mxCell>
        <mxCell id="toVHhSwL18jw2-ZxBe2X-5" value="+ get_item(int) : item&lt;div&gt;+ get_volume(int) : float&lt;/div&gt;&lt;div&gt;+ get_weight(int) : float&lt;/div&gt;&lt;div&gt;+ is_stackable(int) : bool&lt;/div&gt;&lt;div&gt;+ qty_per_pallet(int, float, float) : int&lt;/div&gt;" style="text;strokeColor=none;fillColor=none;align=left;verticalAlign=top;spacingLeft=4;spacingRight=4;overflow=hidden;rotatable=0;points=[[0,0.5],[1,0.5]];portConstraint=eastwest;whiteSpace=wrap;html=1;" parent="toVHhSwL18jw2-ZxBe2X-2" vertex="1">
          <mxGeometry y="60" width="230" height="90" as="geometry" />
        </mxCell>
        <mxCell id="toVHhSwL18jw2-ZxBe2X-6" style="edgeStyle=orthogonalEdgeStyle;rounded=0;orthogonalLoop=1;jettySize=auto;html=1;endArrow=none;endFill=0;startArrow=diamondThin;startFill=0;exitX=1.009;exitY=0.45;exitDx=0;exitDy=0;exitPerimeter=0;startSize=14;" parent="1" source="toVHhSwL18jw2-ZxBe2X-5" target="aCgWnRSETQbmPh6hFBE5-6" edge="1">
          <mxGeometry relative="1" as="geometry" />
        </mxCell>
        <mxCell id="QXoWdYA4R01iNKprQlqZ-68" value="0..*" style="edgeLabel;html=1;align=center;verticalAlign=middle;resizable=0;points=[];" parent="toVHhSwL18jw2-ZxBe2X-6" vertex="1" connectable="0">
          <mxGeometry x="0.7843" y="1" relative="1" as="geometry">
            <mxPoint as="offset" />
          </mxGeometry>
        </mxCell>
        <mxCell id="QXoWdYA4R01iNKprQlqZ-69" value="1" style="edgeLabel;html=1;align=center;verticalAlign=middle;resizable=0;points=[];" parent="toVHhSwL18jw2-ZxBe2X-6" vertex="1" connectable="0">
          <mxGeometry x="-0.688" relative="1" as="geometry">
            <mxPoint as="offset" />
          </mxGeometry>
        </mxCell>
        <mxCell id="toVHhSwL18jw2-ZxBe2X-9" value="InventoryManager" style="swimlane;fontStyle=1;align=center;verticalAlign=top;childLayout=stackLayout;horizontal=1;startSize=26;horizontalStack=0;resizeParent=1;resizeParentMax=0;resizeLast=0;collapsible=1;marginBottom=0;whiteSpace=wrap;html=1;" parent="1" vertex="1">
          <mxGeometry x="-990" y="414" width="250" height="180" as="geometry" />
        </mxCell>
        <mxCell id="toVHhSwL18jw2-ZxBe2X-10" value="- catalogue : Catalogue&lt;div&gt;- warehouse : Warehouse&lt;/div&gt;&lt;div&gt;- item_warehouse : ItemWarehouse&lt;/div&gt;&lt;div&gt;- db : DatabaseManager&lt;/div&gt;" style="text;strokeColor=none;fillColor=none;align=left;verticalAlign=top;spacingLeft=4;spacingRight=4;overflow=hidden;rotatable=0;points=[[0,0.5],[1,0.5]];portConstraint=eastwest;whiteSpace=wrap;html=1;" parent="toVHhSwL18jw2-ZxBe2X-9" vertex="1">
          <mxGeometry y="26" width="250" height="84" as="geometry" />
        </mxCell>
        <mxCell id="toVHhSwL18jw2-ZxBe2X-11" value="" style="line;strokeWidth=1;fillColor=none;align=left;verticalAlign=middle;spacingTop=-1;spacingLeft=3;spacingRight=3;rotatable=0;labelPosition=right;points=[];portConstraint=eastwest;strokeColor=inherit;" parent="toVHhSwL18jw2-ZxBe2X-9" vertex="1">
          <mxGeometry y="110" width="250" height="8" as="geometry" />
        </mxCell>
        <mxCell id="toVHhSwL18jw2-ZxBe2X-12" value="+ place_refill_order(int, int)&lt;div&gt;+ place_opm_order(Dict[int,int])&lt;/div&gt;" style="text;strokeColor=none;fillColor=none;align=left;verticalAlign=top;spacingLeft=4;spacingRight=4;overflow=hidden;rotatable=0;points=[[0,0.5],[1,0.5]];portConstraint=eastwest;whiteSpace=wrap;html=1;" parent="toVHhSwL18jw2-ZxBe2X-9" vertex="1">
          <mxGeometry y="118" width="250" height="62" as="geometry" />
        </mxCell>
        <mxCell id="toVHhSwL18jw2-ZxBe2X-14" style="edgeStyle=orthogonalEdgeStyle;rounded=0;orthogonalLoop=1;jettySize=auto;html=1;startArrow=diamondThin;startFill=0;startSize=14;exitX=0.49;exitY=1.016;exitDx=0;exitDy=0;exitPerimeter=0;endArrow=none;endFill=0;entryX=0.586;entryY=0.023;entryDx=0;entryDy=0;entryPerimeter=0;" parent="1" source="toVHhSwL18jw2-ZxBe2X-12" target="toVHhSwL18jw2-ZxBe2X-2" edge="1">
          <mxGeometry relative="1" as="geometry">
            <mxPoint x="-710" y="570" as="targetPoint" />
          </mxGeometry>
        </mxCell>
        <mxCell id="QXoWdYA4R01iNKprQlqZ-53" value="1" style="edgeLabel;html=1;align=center;verticalAlign=middle;resizable=0;points=[];" parent="toVHhSwL18jw2-ZxBe2X-14" vertex="1" connectable="0">
          <mxGeometry x="-0.82" relative="1" as="geometry">
            <mxPoint as="offset" />
          </mxGeometry>
        </mxCell>
        <mxCell id="QXoWdYA4R01iNKprQlqZ-70" value="1" style="edgeLabel;html=1;align=center;verticalAlign=middle;resizable=0;points=[];" parent="toVHhSwL18jw2-ZxBe2X-14" vertex="1" connectable="0">
          <mxGeometry x="0.9191" y="2" relative="1" as="geometry">
            <mxPoint as="offset" />
          </mxGeometry>
        </mxCell>
        <mxCell id="toVHhSwL18jw2-ZxBe2X-17" value="Stock" style="swimlane;fontStyle=1;align=center;verticalAlign=top;childLayout=stackLayout;horizontal=1;startSize=26;horizontalStack=0;resizeParent=1;resizeParentMax=0;resizeLast=0;collapsible=1;marginBottom=0;whiteSpace=wrap;html=1;" parent="1" vertex="1">
          <mxGeometry x="-310" y="365" width="250" height="170" as="geometry" />
        </mxCell>
        <mxCell id="toVHhSwL18jw2-ZxBe2X-18" value="- stock_id : int&lt;div&gt;- name : str&lt;/div&gt;&lt;div&gt;- order_queue : min-heap[int, Order]&lt;/div&gt;&lt;div&gt;&amp;nbsp;&lt;/div&gt;" style="text;strokeColor=none;fillColor=none;align=left;verticalAlign=top;spacingLeft=4;spacingRight=4;overflow=hidden;rotatable=0;points=[[0,0.5],[1,0.5]];portConstraint=eastwest;whiteSpace=wrap;html=1;" parent="toVHhSwL18jw2-ZxBe2X-17" vertex="1">
          <mxGeometry y="26" width="250" height="64" as="geometry" />
        </mxCell>
        <mxCell id="toVHhSwL18jw2-ZxBe2X-19" value="" style="line;strokeWidth=1;fillColor=none;align=left;verticalAlign=middle;spacingTop=-1;spacingLeft=3;spacingRight=3;rotatable=0;labelPosition=right;points=[];portConstraint=eastwest;strokeColor=inherit;" parent="toVHhSwL18jw2-ZxBe2X-17" vertex="1">
          <mxGeometry y="90" width="250" height="8" as="geometry" />
        </mxCell>
        <mxCell id="toVHhSwL18jw2-ZxBe2X-20" value="+ place_order(order, int)&lt;div&gt;+ next_order() : order&lt;/div&gt;&lt;div&gt;+ has_orders() : bool&lt;/div&gt;&lt;div&gt;+ process_order()&lt;/div&gt;" style="text;strokeColor=none;fillColor=none;align=left;verticalAlign=top;spacingLeft=4;spacingRight=4;overflow=hidden;rotatable=0;points=[[0,0.5],[1,0.5]];portConstraint=eastwest;whiteSpace=wrap;html=1;" parent="toVHhSwL18jw2-ZxBe2X-17" vertex="1">
          <mxGeometry y="98" width="250" height="72" as="geometry" />
        </mxCell>
        <mxCell id="2I75z5MOBhP54EQgu0it-16" style="edgeStyle=orthogonalEdgeStyle;rounded=0;orthogonalLoop=1;jettySize=auto;html=1;strokeColor=default;align=center;verticalAlign=middle;fontFamily=Helvetica;fontSize=11;fontColor=default;labelBackgroundColor=default;jumpSize=6;endArrow=diamondThin;endFill=0;endSize=14;" edge="1" parent="1" source="toVHhSwL18jw2-ZxBe2X-21" target="toVHhSwL18jw2-ZxBe2X-9">
          <mxGeometry relative="1" as="geometry" />
        </mxCell>
        <mxCell id="2I75z5MOBhP54EQgu0it-17" value="1" style="edgeLabel;html=1;align=center;verticalAlign=middle;resizable=0;points=[];" vertex="1" connectable="0" parent="2I75z5MOBhP54EQgu0it-16">
          <mxGeometry x="-0.8499" y="-1" relative="1" as="geometry">
            <mxPoint as="offset" />
          </mxGeometry>
        </mxCell>
        <mxCell id="2I75z5MOBhP54EQgu0it-18" value="1" style="edgeLabel;html=1;align=center;verticalAlign=middle;resizable=0;points=[];" vertex="1" connectable="0" parent="2I75z5MOBhP54EQgu0it-16">
          <mxGeometry x="0.8043" relative="1" as="geometry">
            <mxPoint as="offset" />
          </mxGeometry>
        </mxCell>
        <mxCell id="toVHhSwL18jw2-ZxBe2X-21" value="Warehouse" style="swimlane;fontStyle=1;align=center;verticalAlign=top;childLayout=stackLayout;horizontal=1;startSize=26;horizontalStack=0;resizeParent=1;resizeParentMax=0;resizeLast=0;collapsible=1;marginBottom=0;whiteSpace=wrap;html=1;" parent="1" vertex="1">
          <mxGeometry x="-600" y="310" width="240" height="104" as="geometry" />
        </mxCell>
        <mxCell id="toVHhSwL18jw2-ZxBe2X-22" value="- buffer : PayloadBuffer&lt;div&gt;- process_time : float&lt;/div&gt;" style="text;strokeColor=none;fillColor=none;align=left;verticalAlign=top;spacingLeft=4;spacingRight=4;overflow=hidden;rotatable=0;points=[[0,0.5],[1,0.5]];portConstraint=eastwest;whiteSpace=wrap;html=1;" parent="toVHhSwL18jw2-ZxBe2X-21" vertex="1">
          <mxGeometry y="26" width="240" height="44" as="geometry" />
        </mxCell>
        <mxCell id="toVHhSwL18jw2-ZxBe2X-23" value="" style="line;strokeWidth=1;fillColor=none;align=left;verticalAlign=middle;spacingTop=-1;spacingLeft=3;spacingRight=3;rotatable=0;labelPosition=right;points=[];portConstraint=eastwest;strokeColor=inherit;" parent="toVHhSwL18jw2-ZxBe2X-21" vertex="1">
          <mxGeometry y="70" width="240" height="8" as="geometry" />
        </mxCell>
        <mxCell id="toVHhSwL18jw2-ZxBe2X-24" value="+ method(type): type" style="text;strokeColor=none;fillColor=none;align=left;verticalAlign=top;spacingLeft=4;spacingRight=4;overflow=hidden;rotatable=0;points=[[0,0.5],[1,0.5]];portConstraint=eastwest;whiteSpace=wrap;html=1;" parent="toVHhSwL18jw2-ZxBe2X-21" vertex="1">
          <mxGeometry y="78" width="240" height="26" as="geometry" />
        </mxCell>
        <mxCell id="2I75z5MOBhP54EQgu0it-15" style="edgeStyle=orthogonalEdgeStyle;rounded=0;orthogonalLoop=1;jettySize=auto;html=1;endArrow=diamondThin;endFill=0;strokeColor=default;align=center;verticalAlign=middle;fontFamily=Helvetica;fontSize=11;fontColor=default;labelBackgroundColor=default;jumpSize=6;endSize=14;" edge="1" parent="1" source="QXoWdYA4R01iNKprQlqZ-43" target="toVHhSwL18jw2-ZxBe2X-9">
          <mxGeometry relative="1" as="geometry">
            <Array as="points">
              <mxPoint x="-670" y="617" />
              <mxPoint x="-670" y="530" />
            </Array>
          </mxGeometry>
        </mxCell>
        <mxCell id="2I75z5MOBhP54EQgu0it-19" value="1" style="edgeLabel;html=1;align=center;verticalAlign=middle;resizable=0;points=[];" vertex="1" connectable="0" parent="2I75z5MOBhP54EQgu0it-15">
          <mxGeometry x="0.7533" relative="1" as="geometry">
            <mxPoint as="offset" />
          </mxGeometry>
        </mxCell>
        <mxCell id="2I75z5MOBhP54EQgu0it-20" value="1" style="edgeLabel;html=1;align=center;verticalAlign=middle;resizable=0;points=[];" vertex="1" connectable="0" parent="2I75z5MOBhP54EQgu0it-15">
          <mxGeometry x="-0.8943" y="-1" relative="1" as="geometry">
            <mxPoint as="offset" />
          </mxGeometry>
        </mxCell>
        <mxCell id="QXoWdYA4R01iNKprQlqZ-43" value="ItemWarehouse" style="swimlane;fontStyle=1;align=center;verticalAlign=top;childLayout=stackLayout;horizontal=1;startSize=26;horizontalStack=0;resizeParent=1;resizeParentMax=0;resizeLast=0;collapsible=1;marginBottom=0;whiteSpace=wrap;html=1;" parent="1" vertex="1">
          <mxGeometry x="-600" y="550" width="210" height="134" as="geometry" />
        </mxCell>
        <mxCell id="QXoWdYA4R01iNKprQlqZ-44" value="+ field: type" style="text;strokeColor=none;fillColor=none;align=left;verticalAlign=top;spacingLeft=4;spacingRight=4;overflow=hidden;rotatable=0;points=[[0,0.5],[1,0.5]];portConstraint=eastwest;whiteSpace=wrap;html=1;" parent="QXoWdYA4R01iNKprQlqZ-43" vertex="1">
          <mxGeometry y="26" width="210" height="74" as="geometry" />
        </mxCell>
        <mxCell id="QXoWdYA4R01iNKprQlqZ-45" value="" style="line;strokeWidth=1;fillColor=none;align=left;verticalAlign=middle;spacingTop=-1;spacingLeft=3;spacingRight=3;rotatable=0;labelPosition=right;points=[];portConstraint=eastwest;strokeColor=inherit;" parent="QXoWdYA4R01iNKprQlqZ-43" vertex="1">
          <mxGeometry y="100" width="210" height="8" as="geometry" />
        </mxCell>
        <mxCell id="QXoWdYA4R01iNKprQlqZ-46" value="+ method(type): type" style="text;strokeColor=none;fillColor=none;align=left;verticalAlign=top;spacingLeft=4;spacingRight=4;overflow=hidden;rotatable=0;points=[[0,0.5],[1,0.5]];portConstraint=eastwest;whiteSpace=wrap;html=1;" parent="QXoWdYA4R01iNKprQlqZ-43" vertex="1">
          <mxGeometry y="108" width="210" height="26" as="geometry" />
        </mxCell>
        <mxCell id="QXoWdYA4R01iNKprQlqZ-63" value="Extends" style="endArrow=block;endSize=16;endFill=0;html=1;rounded=0;edgeStyle=orthogonalEdgeStyle;" parent="1" source="aCgWnRSETQbmPh6hFBE5-17" target="aCgWnRSETQbmPh6hFBE5-1" edge="1">
          <mxGeometry width="160" relative="1" as="geometry">
            <mxPoint x="60" y="570" as="sourcePoint" />
            <mxPoint x="220" y="570" as="targetPoint" />
          </mxGeometry>
        </mxCell>
        <mxCell id="QXoWdYA4R01iNKprQlqZ-64" value="Extends" style="endArrow=block;endSize=16;endFill=0;html=1;rounded=0;edgeStyle=orthogonalEdgeStyle;" parent="1" source="aCgWnRSETQbmPh6hFBE5-13" target="aCgWnRSETQbmPh6hFBE5-1" edge="1">
          <mxGeometry width="160" relative="1" as="geometry">
            <mxPoint x="40" y="560" as="sourcePoint" />
            <mxPoint x="200" y="560" as="targetPoint" />
          </mxGeometry>
        </mxCell>
        <mxCell id="QXoWdYA4R01iNKprQlqZ-74" value="Extends" style="endArrow=block;endSize=16;endFill=0;html=1;rounded=0;edgeStyle=orthogonalEdgeStyle;" parent="1" source="toVHhSwL18jw2-ZxBe2X-21" target="toVHhSwL18jw2-ZxBe2X-17" edge="1">
          <mxGeometry width="160" relative="1" as="geometry">
            <mxPoint x="-860" y="720" as="sourcePoint" />
            <mxPoint x="-700" y="720" as="targetPoint" />
            <Array as="points">
              <mxPoint x="-470" y="460" />
            </Array>
          </mxGeometry>
        </mxCell>
        <mxCell id="2I75z5MOBhP54EQgu0it-4" value="" style="endArrow=block;endSize=16;endFill=0;html=1;rounded=0;edgeStyle=orthogonalEdgeStyle;" edge="1" parent="1" source="QXoWdYA4R01iNKprQlqZ-43" target="toVHhSwL18jw2-ZxBe2X-17">
          <mxGeometry width="160" relative="1" as="geometry">
            <mxPoint x="-660" y="750" as="sourcePoint" />
            <mxPoint x="-500" y="750" as="targetPoint" />
            <Array as="points">
              <mxPoint x="-470" y="460" />
            </Array>
          </mxGeometry>
        </mxCell>
        <mxCell id="2I75z5MOBhP54EQgu0it-11" style="edgeStyle=orthogonalEdgeStyle;rounded=0;orthogonalLoop=1;jettySize=auto;html=1;strokeColor=default;align=center;verticalAlign=middle;fontFamily=Helvetica;fontSize=11;fontColor=default;labelBackgroundColor=default;jumpSize=6;endArrow=diamondThin;endFill=0;endSize=14;" edge="1" parent="1" source="2I75z5MOBhP54EQgu0it-7" target="toVHhSwL18jw2-ZxBe2X-9">
          <mxGeometry relative="1" as="geometry" />
        </mxCell>
        <mxCell id="2I75z5MOBhP54EQgu0it-13" value="1" style="edgeLabel;html=1;align=center;verticalAlign=middle;resizable=0;points=[];" vertex="1" connectable="0" parent="2I75z5MOBhP54EQgu0it-11">
          <mxGeometry x="0.5857" relative="1" as="geometry">
            <mxPoint as="offset" />
          </mxGeometry>
        </mxCell>
        <mxCell id="2I75z5MOBhP54EQgu0it-14" value="0..1" style="edgeLabel;html=1;align=center;verticalAlign=middle;resizable=0;points=[];" vertex="1" connectable="0" parent="2I75z5MOBhP54EQgu0it-11">
          <mxGeometry x="-0.7829" relative="1" as="geometry">
            <mxPoint as="offset" />
          </mxGeometry>
        </mxCell>
        <mxCell id="2I75z5MOBhP54EQgu0it-7" value="DatabaseManager" style="swimlane;fontStyle=1;align=center;verticalAlign=top;childLayout=stackLayout;horizontal=1;startSize=26;horizontalStack=0;resizeParent=1;resizeParentMax=0;resizeLast=0;collapsible=1;marginBottom=0;whiteSpace=wrap;html=1;" vertex="1" parent="1">
          <mxGeometry x="-950" y="190" width="160" height="86" as="geometry" />
        </mxCell>
        <mxCell id="2I75z5MOBhP54EQgu0it-8" value="+ field: type" style="text;strokeColor=none;fillColor=none;align=left;verticalAlign=top;spacingLeft=4;spacingRight=4;overflow=hidden;rotatable=0;points=[[0,0.5],[1,0.5]];portConstraint=eastwest;whiteSpace=wrap;html=1;" vertex="1" parent="2I75z5MOBhP54EQgu0it-7">
          <mxGeometry y="26" width="160" height="26" as="geometry" />
        </mxCell>
        <mxCell id="2I75z5MOBhP54EQgu0it-9" value="" style="line;strokeWidth=1;fillColor=none;align=left;verticalAlign=middle;spacingTop=-1;spacingLeft=3;spacingRight=3;rotatable=0;labelPosition=right;points=[];portConstraint=eastwest;strokeColor=inherit;" vertex="1" parent="2I75z5MOBhP54EQgu0it-7">
          <mxGeometry y="52" width="160" height="8" as="geometry" />
        </mxCell>
        <mxCell id="2I75z5MOBhP54EQgu0it-10" value="+ method(type): type" style="text;strokeColor=none;fillColor=none;align=left;verticalAlign=top;spacingLeft=4;spacingRight=4;overflow=hidden;rotatable=0;points=[[0,0.5],[1,0.5]];portConstraint=eastwest;whiteSpace=wrap;html=1;" vertex="1" parent="2I75z5MOBhP54EQgu0it-7">
          <mxGeometry y="60" width="160" height="26" as="geometry" />
        </mxCell>
      </root>
    </mxGraphModel>
  </diagram>
</mxfile>
